{
  "accessors": [
    {
      "bufferView": 2,
      "componentType": 5126,
      "count": 3988,
      "max": [
        1.059689998626709,
        1.059689998626709,
        3.5946199893951416
      ],
      "min": [
        -1.059689998626709,
        -1.059689998626709,
        0.01590999960899353
      ],
      "type": "VEC3"
    },
    {
      "bufferView": 2,
      "byteOffset": 47856,
      "componentType": 5126,
      "count": 3988,
      "max": [
        0.99999803304672241,
        0.99999803304672241,
        0.49085193872451782
      ],
      "min": [
        -0.99999803304672241,
        -0.99999803304672241,
        -0.81976211071014404
      ],
      "type": "VEC3"
    },
    {
      "bufferView": 3,
      "componentType": 5126,
      "count": 3988,
      "max": [
        0.99999845027923584,
        0.99999839067459106,
        0.59781366586685181,
        1
      ],
      "min": [
        -0.99999839067459106,
        -0.99999845027923584,
        -0.62363773584365845,
        -1
      ],
      "type": "VEC4"
    },
    {
      "bufferView": 1,
      "componentType": 5126,
      "count": 3988,
      "max": [
        1,
        1
      ],
      "min": [
        0,
        0
      ],
      "type": "VEC2"
    },
    {
      "bufferView": 0,
      "componentType": 5125,
      "count": 21504,
      "max": [
        3987
      ],
      "min": [
        0
      ],
      "type": "SCALAR"
    },
    {
      "bufferView": 2,
      "byteOffset": 95712,
      "componentType": 5126,
      "count": 32170,
      "max": [
        0.96235001087188721,
        0.96235001087188721,
        3.6389200687408447
      ],
      "min": [
        -0.96235001087188721,
        -0.96235001087188721,
        -0.048909999430179596
      ],
      "type": "VEC3"
    },
    {
      "bufferView": 2,
      "byteOffset": 481752,
      "componentType": 5126,
      "count": 32170,
      "max": [
        0.99936372041702271,
        0.9997064471244812,
        1
      ],
      "min": [
        -0.99936372041702271,
        -0.9997064471244812,
        -1
      ],
      "type": "VEC3"
    },
    {
      "bufferView": 3,
      "byteOffset": 63808,
      "componentType": 5126,
      "count": 32170,
      "max": [
        0,
        0,
        0,
        1
      ],
      "min": [
        0,
        0,
        0,
        1
      ],
      "type": "VEC4"
    },
    {
      "bufferView": 0,
      "byteOffset": 86016,
      "componentType": 5125,
      "count": 93144,
      "max": [
        32169
      ],
      "min": [
        0
      ],
      "type": "SCALAR"
    }
  ],
  "asset": {
    "extras": {
      "author": "Shadow Mine (https://sketchfab.com/aisaac)",
      "license": "CC-BY-4.0 (http://creativecommons.org/licenses/by/4.0/)",
      "source": "https://sketchfab.com/models/c63a465fc3fc4b5dac6bf385bd954c2c",
      "title": "Soda Can"
    },
    "generator": "Sketchfab-3.20.8",
    "version": "2.0"
  },
  "bufferViews": [
    {
      "buffer": 0,
      "byteLength": 458592,
      "byteOffset": 0,
      "name": "floatBufferViews",
      "target": 34963
    },
    {
      "buffer": 0,
      "byteLength": 31904,
      "byteOffset": 458592,
      "byteStride": 8,
      "name": "floatBufferViews",
      "target": 34962
    },
    {
      "buffer": 0,
      "byteLength": 867792,
      "byteOffset": 490496,
      "byteStride": 12,
      "name": "floatBufferViews",
      "target": 34962
    },
    {
      "buffer": 0,
      "byteLength": 578528,
      "byteOffset": 1358288,
      "byteStride": 16,
      "name": "floatBufferViews",
      "target": 34962
    }
  ],
  "buffers": [
    {
      "byteLength": 1936816,
      "uri": "scene.bin"
    }
  ],
  "images": [
    {
      "uri": "textures/LABEL_baseColor.jpeg"
    }
  ],
  "materials": [
    {
      "doubleSided": true,
      "emissiveFactor": [
        0,
        0,
        0
      ],
      "name": "LABEL",
      "pbrMetallicRoughness": {
        "baseColorFactor": [
          1,
          1,
          1,
          1
        ],
        "baseColorTexture": {
          "index": 0,
          "texCoord": 0
        },
        "metallicFactor": 1,
        "roughnessFactor": 0.28000000000000003
      }
    },
    {
      "doubleSided": true,
      "emissiveFactor": [
        0,
        0,
        0
      ],
      "name": "Material",
      "pbrMetallicRoughness": {
        "baseColorFactor": [
          1,
          1,
          1,
          1
        ],
        "metallicFactor": 1,
        "roughnessFactor": 0.31
      }
    }
  ],
  "meshes": [
    {
      "name": "Circle_0",
      "primitives": [
        {
          "attributes": {
            "NORMAL": 1,
            "POSITION": 0,
            "TANGENT": 2,
            "TEXCOORD_0": 3
          },
          "indices": 4,
          "material": 0,
          "mode": 4
        }
      ]
    },
    {
      "name": "Circle_1",
      "primitives": [
        {
          "attributes": {
            "NORMAL": 6,
            "POSITION": 5,
            "TANGENT": 7
          },
          "indices": 8,
          "material": 1,
          "mode": 4
        }
      ]
    }
  ],
  "nodes": [
    {
      "children": [
        1
      ],
      "name": "RootNode (gltf orientation matrix)",
      "rotation": [
        -0.70710678118654746,
        -0,
        -0,
        0.70710678118654757
      ]
    },
    {
      "children": [
        2
      ],
      "name": "RootNode (model correction matrix)"
    },
    {
      "children": [
        3
      ],
      "name": "Root"
    },
    {
      "children": [
        4,
        5
      ],
      "name": "Circle"
    },
    {
      "mesh": 0,
      "name": "Circle_0"
    },
    {
      "mesh": 1,
      "name": "Circle_1"
    }
  ],
  "samplers": [
    {
      "magFilter": 9729,
      "minFilter": 9987,
      "wrapS": 10497,
      "wrapT": 10497
    }
  ],
  "scene": 0,
  "scenes": [
    {
      "name": "OSG_Scene",
      "nodes": [
        0
      ]
    }
  ],
  "textures": [
    {
      "sampler": 0,
      "source": 0
    }
  ]
}

