<?xml version="1.0" standalone="no"?>
<!DOCTYPE svg PUBLIC "-//W3C//DTD SVG 1.1//EN" "http://www.w3.org/Graphics/SVG/1.1/DTD/svg11.dtd">
<svg xmlns="http://www.w3.org/2000/svg" width="1401.862mm" height="2164.710mm" viewBox="0 0 1401.862 2164.710">
	<g id="BezierCircle">
		<path style="fill:rgb(204,204,204);" d="m958.193,2139.643c-272.823,6.106 -881.781,-656.925 -924.693,-1175.882c-45.500,-550.246 62.276,-750.182 1030.072,-924.444c626.437,-112.797 157.773,458.840 -69.083,962.207c-226.856,503.367 225.073,1132.269 -36.296,1138.119z"/>
	</g>
	<g id="BezierCircle.001">
		<path style="fill:rgb(204,204,204);" d="m958.193,2139.643c-272.823,6.106 -881.781,-656.925 -924.693,-1175.882c-45.500,-550.246 62.276,-750.182 1030.072,-924.444c626.437,-112.797 157.773,458.840 -69.083,962.207c-226.856,503.367 225.073,1132.269 -36.296,1138.119z"/>
	</g>
	<g id="BezierCircle.002">
		<path style="fill:rgb(204,204,204);" d="m958.193,2139.643c-272.823,6.106 -881.781,-656.925 -924.693,-1175.882c-45.500,-550.246 62.276,-750.182 1030.072,-924.444c626.437,-112.797 157.773,458.840 -69.083,962.207c-226.856,503.367 225.073,1132.269 -36.296,1138.119z"/>
	</g>
</svg>